<svg xmlns="http://www.w3.org/2000/svg" viewBox="0 0 1024 1024">
  <defs>
  <linearGradient id="bg" x1="0%" y1="0%" x2="100%" y2="100%">
    <stop offset="0%" stop-color="#4F5BE8"/>
    <stop offset="55%" stop-color="#5B66EA"/>
    <stop offset="100%" stop-color="#00A98F"/>
  </linearGradient>
  <radialGradient id="glow" cx="50%" cy="42%" r="50%">
    <stop offset="0%" stop-color="rgba(255,255,255,0.18)"/>
    <stop offset="100%" stop-color="rgba(255,255,255,0)"/>
  </radialGradient>
</defs>
<rect width="1024" height="1024"  fill="url(#bg)"/>
<rect width="1024" height="1024"  fill="url(#glow)"/>
  <g transform="translate(512, 512) scale(4) translate(-64, -64)">
    <g transform="translate(0, 7)"><path d="M 30 54 A 34 34 0 1 1 98 54" fill="none" stroke="#B8FFF0" stroke-width="2" stroke-linecap="round" opacity="0.22"/>
  <path d="M 34 54 A 30 30 0 1 1 94 54" fill="none" stroke="#B8FFF0" stroke-width="4.5" stroke-linecap="round" opacity="0.9"/>
  <path d="M 39 54 A 25 25 0 1 1 89 54" fill="none" stroke="rgba(255,255,255,0.35)" stroke-width="2" stroke-linecap="round" opacity="0.35"/>
  <path d="M64 24 C49.5 24 39 35 39 48.5 C39 55.5 48.5 67 64 91 C79.5 67 89 55.5 89 48.5 C89 35 78.5 24 64 24 Z" fill="#FFFFFF"/>
  <circle cx="64" cy="47" r="11.5" fill="#4F5BE8" opacity="0.96"/>
  <circle cx="64" cy="47" r="5" fill="#B8FFF0"/></g>
  </g>
</svg>
